<svg xmlns="http://www.w3.org/2000/svg" xmlns:xlink="http://www.w3.org/1999/xlink" x="0" y="0" width="662" height="302" style="
        width:662px;
        height:302px;
        background: transparent;
        fill: none;
">
        
        
        <svg xmlns="http://www.w3.org/2000/svg" class="role-diagram-draw-area"><g class="shapes-region" style="stroke: black; fill: none;"><g class="composite-shape"><path class="real" d=" M185.45,28.08 L419.37,28.08 L419.37,262 L185.45,262 Z" style="stroke-width: 3px; stroke: rgb(0, 0, 0); fill: none; fill-opacity: 1;"/></g><g class="composite-shape"><path class="real" d=" M240.63,145.04 C240.63,110.92 268.29,83.27 302.41,83.27 C336.53,83.27 364.18,110.92 364.18,145.04 C364.18,179.16 336.53,206.82 302.41,206.82 C268.29,206.82 240.63,179.16 240.63,145.04 Z" style="stroke-width: 3px; stroke: rgb(0, 0, 0); fill: rgb(155, 155, 155); fill-opacity: 0.26;"/></g><g class="composite-shape"><path class="real" d=" M299.29,145.04 C299.29,143.32 300.68,141.92 302.41,141.92 C304.13,141.92 305.53,143.32 305.53,145.04 C305.53,146.77 304.13,148.16 302.41,148.16 C300.68,148.16 299.29,146.77 299.29,145.04 Z" style="stroke-width: 4px; stroke: rgb(0, 0, 0); fill: rgb(0, 0, 0); fill-opacity: 1;"/></g><g class="arrow-line"><path class="connection real" stroke-dasharray="" d="  M305.41,145.04 L361.18,145.04" style="stroke: rgb(0, 0, 0); stroke-width: 1px; fill: none; fill-opacity: 1;"/><g stroke="none" transform="matrix(-1,1.2246467991473532e-16,-1.2246467991473532e-16,-1,364.18333435058594,145.0416717529297)" style="stroke: none; stroke-width: 1px; fill: rgb(0, 0, 0);" fill="#000"><path d=" M8.93,-4.29 L0,0 L8.93,4.29 Z"/></g><g stroke="none" fill="#000" transform="matrix(1,0,0,1,302.40834045410156,145.0416717529297)" style="stroke: none; fill: rgb(0, 0, 0); stroke-width: 1px;"><path d=" M8.93,-4.29 L0,0 L8.93,4.29 Z"/></g></g><g/></g><g/><g/><g/></svg>
        <svg xmlns="http://www.w3.org/2000/svg" xmlns:xlink="http://www.w3.org/1999/xlink" width="660" height="300" style="width:660px;height:300px;font-family:Asana-Math, Asana;background:transparent;"><g><g><g><g transform="matrix(1,0,0,1,202,62.299993896484374)"><path transform="matrix(0.020399999999999998,0,0,-0.020399999999999998,0,0)" d="M477 677C671 677 703 544 673 374C649 233 576 89 413 68L401 0C504 -2 609 -2 711 -6C723 44 736 95 752 145L752 148L733 148L733 145C711 92 708 75 648 75L520 75C664 131 758 253 784 398C822 614 681 704 482 704C281 704 99 621 60 398C34 254 86 131 210 75L81 75C20 75 22 95 18 148L-2 148C-4 97 -7 45 -11 -6C93 -2 197 -3 300 0L312 68C155 89 136 235 161 377C192 552 287 677 477 677Z" stroke="rgb(0,0,0)" stroke-opacity="1" stroke-width="8" fill="rgb(0,0,0)" fill-opacity="1"></path></g></g><g><g><g><g><g transform="matrix(1,0,0,1,219.4333292643229,65.66333129882813)"><path transform="matrix(0.01428,0,0,-0.01428,0,0)" d="M251 722L239 733C187 707 151 698 79 691L75 670L123 670C147 670 157 663 157 648C157 645 157 640 154 622C143 567 70 182 55 132C42 82 36 52 36 31C36 6 47 -9 66 -9C92 -9 128 12 226 85L216 103L190 86C161 67 139 56 129 56C122 56 116 66 116 76C116 82 117 89 120 104Z" stroke="rgb(0,0,0)" stroke-opacity="1" stroke-width="8" fill="rgb(0,0,0)" fill-opacity="1"></path></g></g></g></g></g></g></g><g><g><g><g transform="matrix(1,0,0,1,289,112.63332722981741)"><path transform="matrix(0.020399999999999998,0,0,-0.020399999999999998,0,0)" d="M477 677C671 677 703 544 673 374C649 233 576 89 413 68L401 0C504 -2 609 -2 711 -6C723 44 736 95 752 145L752 148L733 148L733 145C711 92 708 75 648 75L520 75C664 131 758 253 784 398C822 614 681 704 482 704C281 704 99 621 60 398C34 254 86 131 210 75L81 75C20 75 22 95 18 148L-2 148C-4 97 -7 45 -11 -6C93 -2 197 -3 300 0L312 68C155 89 136 235 161 377C192 552 287 677 477 677Z" stroke="rgb(0,0,0)" stroke-opacity="1" stroke-width="8" fill="rgb(0,0,0)" fill-opacity="1"></path></g></g><g><g><g><g><g transform="matrix(1,0,0,1,306.43332926432294,115.99666463216116)"><path transform="matrix(0.01428,0,0,-0.01428,0,0)" d="M31 148C26 97 20 62 9 16C47 -2 81 -11 116 -11C165 -11 211 7 262 47C313 87 334 124 334 174C334 228 302 257 228 271L185 279C125 290 106 307 106 348C106 401 151 442 208 442C249 442 287 424 303 397L303 342L326 342C330 377 334 404 345 455C306 474 278 482 245 482C193 482 132 452 84 404C58 377 47 352 47 316C47 260 78 228 144 215L207 203C251 195 267 177 267 138C267 73 221 29 150 29C115 29 84 40 56 64L56 148Z" stroke="rgb(0,0,0)" stroke-opacity="1" stroke-width="8" fill="rgb(0,0,0)" fill-opacity="1"></path></g></g></g></g></g></g></g><g><g><g><g transform="matrix(1,0,0,1,324.3333333333333,165.29999389648438)"><path transform="matrix(0.020399999999999998,0,0,-0.020399999999999998,0,0)" d="M105 664L161 662C185 661 196 653 196 635C196 621 192 589 187 559L112 125C96 34 94 32 54 28L13 25L9 -3L51 -2C98 0 117 0 141 0L238 -3L264 -3L267 25L218 28C191 30 182 38 182 58C182 67 183 76 186 93L287 648C316 654 336 656 363 656C450 656 496 617 496 543C496 448 418 378 314 378L270 378L267 367C401 172 432 124 507 -3C507 -3 592 0 592 0C593 0 607 -1 626 -3L639 -3L639 24C599 29 588 37 559 79L375 354C430 364 459 376 495 402C553 444 584 499 584 560C584 646 520 693 409 691L108 691Z" stroke="rgb(0,0,0)" stroke-opacity="1" stroke-width="8" fill="rgb(0,0,0)" fill-opacity="1"></path></g></g></g></g></svg>
</svg>
