<svg xmlns="http://www.w3.org/2000/svg" xmlns:xlink="http://www.w3.org/1999/xlink" x="0" y="0" width="661.066650390625" height="353.73333740234375" style="
        width:661.066650390625px;
        height:353.73333740234375px;
        background: transparent;
        fill: none;
">
        
        
        <svg xmlns="http://www.w3.org/2000/svg" class="role-diagram-draw-area"><g class="shapes-region" style="stroke: black; fill: none;"><g class="arrow-line"><path class="connection real" stroke-dasharray="1.125 3.35" d="  M303.82,285.33 L386.62,75.51" style="stroke: rgb(208, 2, 27); stroke-opacity: 1; stroke-width: 1px; fill: none; fill-opacity: 1;"/></g><g class="arrow-line"><path class="connection real" stroke-dasharray="1.125 3.35" d="  M303.82,285.33 L407.58,73.75" style="stroke: rgb(208, 2, 27); stroke-opacity: 1; stroke-width: 1px; fill: none; fill-opacity: 1;"/></g><g class="shape"><polygon class="real" points=" 369.51,75.43 303.82,285.33 78.51,286.01 78.51,74.84 232.35,75.15" style="stroke: rgb(208, 2, 27); stroke-opacity: 1; stroke-width: 2px; fill: rgb(155, 155, 155); fill-opacity: 1;"/></g><g class="composite-shape"><path class="real" d=" M256.87,74.84 L435.24,74.84 L435.24,286.01 L256.87,286.01 Z" style="stroke-width: 3px; stroke: rgb(0, 0, 0); fill: none; fill-opacity: 1;"/></g><g class="composite-shape"><path class="real" d=" M435.24,74.84 L613.6,74.84 L613.6,286.01 L435.24,286.01 Z" style="stroke-width: 3px; stroke: rgb(0, 0, 0); fill: none; fill-opacity: 1;"/></g><g class="composite-shape"><path class="real" d=" M78.51,74.84 L256.87,74.84 L256.87,286.01 L78.51,286.01 Z" style="stroke-width: 3px; stroke: rgb(0, 0, 0); fill: none; fill-opacity: 1;"/></g><g class="composite-shape"><path class="real" d=" M526.7,286.14 C526.7,282.82 529.32,280.13 532.55,280.13 C535.77,280.13 538.39,282.82 538.39,286.14 C538.39,289.46 535.77,292.15 532.55,292.15 C529.32,292.15 526.7,289.46 526.7,286.14 Z" style="stroke-width: 1px; stroke: rgb(0, 0, 0); fill: rgb(74, 144, 226); fill-opacity: 1;"/></g><g class="composite-shape"><path class="real" d=" M526.7,77.17 C526.7,73.85 529.32,71.16 532.55,71.16 C535.77,71.16 538.39,73.85 538.39,77.17 C538.39,80.48 535.77,83.17 532.55,83.17 C529.32,83.17 526.7,80.48 526.7,77.17 Z" style="stroke-width: 1px; stroke: rgb(0, 0, 0); fill: rgb(74, 144, 226); fill-opacity: 1;"/></g><g class="composite-shape"><path class="real" d=" M361.65,284.98 C361.65,281.67 364.26,278.98 367.49,278.98 C370.72,278.98 373.33,281.67 373.33,284.98 C373.33,288.3 370.72,290.99 367.49,290.99 C364.26,290.99 361.65,288.3 361.65,284.98 Z" style="stroke-width: 1px; stroke: rgb(0, 0, 0); fill: rgb(74, 144, 226); fill-opacity: 1;"/></g><g class="composite-shape"><path class="real" d=" M328.27,179.66 C328.27,174.34 331.91,170.03 336.4,170.03 C340.89,170.03 344.53,174.34 344.53,179.66 C344.53,184.97 340.89,189.28 336.4,189.28 C331.91,189.28 328.27,184.97 328.27,179.66 Z" style="stroke-width: 1px; stroke: rgb(0, 0, 0); fill: rgb(0, 0, 0); fill-opacity: 1;"/></g><g class="arrow-line"><path class="connection real" stroke-dasharray="1.125 3.35" d="  M303.82,285.33 L423.45,75.51" style="stroke: rgb(208, 2, 27); stroke-opacity: 1; stroke-width: 1px; fill: none; fill-opacity: 1;"/></g><g class="composite-shape"><path class="real" d=" M417.6,75.51 C417.6,72.19 420.22,69.5 423.45,69.5 C426.68,69.5 429.29,72.19 429.29,75.51 C429.29,78.83 426.68,81.52 423.45,81.52 C420.22,81.52 417.6,78.83 417.6,75.51 Z" style="stroke-width: 1px; stroke: none; stroke-opacity: 1; fill: rgb(208, 2, 27); fill-opacity: 1;"/></g><g class="composite-shape"><path class="real" d=" M398.66,74.36 C398.66,71.05 401.28,68.36 404.51,68.36 C407.74,68.36 410.35,71.05 410.35,74.36 C410.35,77.68 407.74,80.37 404.51,80.37 C401.28,80.37 398.66,77.68 398.66,74.36 Z" style="stroke-width: 1px; stroke: none; stroke-opacity: 1; fill: rgb(208, 2, 27); fill-opacity: 1;"/></g><g class="composite-shape"><path class="real" d=" M380.78,75.51 C380.78,72.19 383.39,69.5 386.62,69.5 C389.85,69.5 392.46,72.19 392.46,75.51 C392.46,78.83 389.85,81.52 386.62,81.52 C383.39,81.52 380.78,78.83 380.78,75.51 Z" style="stroke-width: 1px; stroke: none; stroke-opacity: 1; fill: rgb(208, 2, 27); fill-opacity: 1;"/></g><g class="composite-shape"><path class="real" d=" M363.66,75.43 C363.66,72.11 366.28,69.42 369.51,69.42 C372.73,69.42 375.35,72.11 375.35,75.43 C375.35,78.75 372.73,81.44 369.51,81.44 C366.28,81.44 363.66,78.75 363.66,75.43 Z" style="stroke-width: 1px; stroke: none; stroke-opacity: 1; fill: rgb(208, 2, 27); fill-opacity: 1;"/></g><g/></g><g/><g/><g/></svg>
        <svg xmlns="http://www.w3.org/2000/svg" xmlns:xlink="http://www.w3.org/1999/xlink" width="660" height="352.6666564941406" style="width:660px;height:352.6666564941406px;font-family:Asana-Math, Asana;background:transparent;"><g><g><g><g transform="matrix(1,0,0,1,26.116668701171875,286.2833251953125)"><path transform="matrix(0.017,0,0,-0.017,0,0)" d="M125 390L69 107C68 99 56 61 56 31C56 6 67 -9 86 -9C121 -9 156 11 234 74L265 99L255 117L210 86C181 66 161 56 150 56C141 56 136 64 136 76C136 102 150 183 179 328L192 390L299 390L310 440C272 436 238 434 200 434C216 528 227 577 245 631L234 646C214 634 187 622 156 610L131 440C87 419 61 408 43 403L41 390Z" stroke="rgb(0,0,0)" stroke-opacity="1" stroke-width="8" fill="rgb(0,0,0)" fill-opacity="1"></path></g></g><g><g><g><g><g transform="matrix(1,0,0,1,32.766693115234375,279.51666870117185)"><path transform="matrix(0.0119,0,0,-0.0119,0,0)" d="M24 388L31 368L63 389C100 412 103 414 110 414C121 414 128 404 128 389C128 338 87 145 46 2L53 -9C78 -2 101 4 123 8C142 134 163 199 209 268C263 352 338 414 383 414C394 414 400 405 400 390C400 372 397 351 389 319L337 107C328 70 324 47 324 31C324 6 335 -9 354 -9C380 -9 416 12 514 85L504 103L478 86C449 67 427 56 417 56C410 56 404 65 404 76C404 81 405 92 406 96L472 372C479 401 483 429 483 446C483 469 472 482 452 482C410 482 341 444 282 389C244 354 216 320 164 247L202 408C206 426 208 438 208 449C208 470 200 482 185 482C164 482 125 460 52 408Z" stroke="rgb(0,0,0)" stroke-opacity="1" stroke-width="8" fill="rgb(0,0,0)" fill-opacity="1"></path></g></g></g></g></g></g></g><g><g><g><g transform="matrix(1,0,0,1,33.583343505859375,78.56666564941406)"><path transform="matrix(0.017,0,0,-0.017,0,0)" d="M125 390L69 107C68 99 56 61 56 31C56 6 67 -9 86 -9C121 -9 156 11 234 74L265 99L255 117L210 86C181 66 161 56 150 56C141 56 136 64 136 76C136 102 150 183 179 328L192 390L299 390L310 440C272 436 238 434 200 434C216 528 227 577 245 631L234 646C214 634 187 622 156 610L131 440C87 419 61 408 43 403L41 390Z" stroke="rgb(0,0,0)" stroke-opacity="1" stroke-width="8" fill="rgb(0,0,0)" fill-opacity="1"></path></g></g><g><g><g><g><g transform="matrix(1,0,0,1,40.23333740234375,71.99999084472657)"><path transform="matrix(0.0119,0,0,-0.0119,0,0)" d="M24 388L31 368L63 389C100 412 103 414 110 414C121 414 128 404 128 389C128 338 87 145 46 2L53 -9C78 -2 101 4 123 8C142 134 163 199 209 268C263 352 338 414 383 414C394 414 400 405 400 390C400 372 397 351 389 319L337 107C328 70 324 47 324 31C324 6 335 -9 354 -9C380 -9 416 12 514 85L504 103L478 86C449 67 427 56 417 56C410 56 404 65 404 76C404 81 405 92 406 96L472 372C479 401 483 429 483 446C483 469 472 482 452 482C410 482 341 444 282 389C244 354 216 320 164 247L202 408C206 426 208 438 208 449C208 470 200 482 185 482C164 482 125 460 52 408ZM1159 241L1159 300L919 300L919 538L860 538L860 300L620 300L620 241L860 241L860 0L919 0L919 241ZM1641 -3L1641 27L1589 30C1534 33 1524 44 1524 96L1524 700L1283 598L1290 548L1440 614L1440 96C1440 44 1429 33 1375 30L1319 27L1319 -3C1473 0 1473 0 1484 0C1515 0 1625 -3 1641 -3Z" stroke="rgb(0,0,0)" stroke-opacity="1" stroke-width="8" fill="rgb(0,0,0)" fill-opacity="1"></path></g></g></g></g></g></g></g><g transform="matrix(0.7849926664121726,-0.6195050554104523,0.6195050554104523,0.7849926664121726,83.93867503242979,295.20422278795434)"><g><g><g transform="matrix(1,0,0,1,443.3666687011719,32.59999084472656)"><path transform="matrix(0.017,0,0,-0.017,0,0)" d="M9 1C24 -7 40 -11 52 -11C85 -11 124 18 155 65L231 182L242 113C255 28 278 -11 314 -11C336 -11 368 6 400 35L449 79L440 98C404 68 379 53 363 53C348 53 335 63 325 83C316 102 305 139 300 168L282 269L317 318C364 383 391 406 422 406C438 406 450 398 455 383L469 387L484 472C472 479 463 482 454 482C414 482 374 446 312 354L275 299L269 347C257 446 230 482 171 482C145 482 123 474 114 461L56 378L73 368C103 402 123 416 142 416C175 416 197 375 214 277L225 215L185 153C142 86 108 54 80 54C65 54 54 58 52 63L41 91L21 88C21 53 13 27 9 1Z" stroke="rgb(0,0,0)" stroke-opacity="1" stroke-width="8" fill="rgb(0,0,0)" fill-opacity="1"></path></g></g><g><g><g><g><g transform="matrix(1,0,0,1,452.8500061035156,25.883322143554686)"><path transform="matrix(0.0119,0,0,-0.0119,0,0)" d="M24 388L31 368L63 389C100 412 103 414 110 414C121 414 128 404 128 389C128 338 87 145 46 2L53 -9C78 -2 101 4 123 8C142 134 163 199 209 268C263 352 338 414 383 414C394 414 400 405 400 390C400 372 397 351 389 319L337 107C328 70 324 47 324 31C324 6 335 -9 354 -9C380 -9 416 12 514 85L504 103L478 86C449 67 427 56 417 56C410 56 404 65 404 76C404 81 405 92 406 96L472 372C479 401 483 429 483 446C483 469 472 482 452 482C410 482 341 444 282 389C244 354 216 320 164 247L202 408C206 426 208 438 208 449C208 470 200 482 185 482C164 482 125 460 52 408ZM1159 241L1159 300L919 300L919 538L860 538L860 300L620 300L620 241L860 241L860 0L919 0L919 241ZM1641 -3L1641 27L1589 30C1534 33 1524 44 1524 96L1524 700L1283 598L1290 548L1440 614L1440 96C1440 44 1429 33 1375 30L1319 27L1319 -3C1473 0 1473 0 1484 0C1515 0 1625 -3 1641 -3ZM1926 123C1899 114 1881 108 1828 93C1821 17 1796 -48 1738 -144L1752 -155L1793 -136C1874 -31 1912 32 1940 109Z" stroke="rgb(0,0,0)" stroke-opacity="1" stroke-width="8" fill="rgb(0,0,0)" fill-opacity="1"></path></g></g><g><g transform="matrix(1,0,0,1,476.3000183105469,25.6833251953125)"><path transform="matrix(0.0119,0,0,-0.0119,0,0)" d="M146 266C146 526 243 632 301 700L282 726C225 675 60 542 60 266C60 159 85 58 133 -32C168 -99 200 -138 282 -215L301 -194C255 -137 146 -15 146 266Z" stroke="rgb(0,0,0)" stroke-opacity="1" stroke-width="8" fill="rgb(0,0,0)" fill-opacity="1"></path></g></g><g><g transform="matrix(1,0,0,1,480.2500305175781,25.883322143554686)"><path transform="matrix(0.0119,0,0,-0.0119,0,0)" d="M418 -3L418 27L366 30C311 33 301 44 301 96L301 700L60 598L67 548L217 614L217 96C217 44 206 33 152 30L96 27L96 -3C250 0 250 0 261 0C292 0 402 -3 418 -3Z" stroke="rgb(0,0,0)" stroke-opacity="1" stroke-width="8" fill="rgb(0,0,0)" fill-opacity="1"></path></g></g><g><g transform="matrix(1,0,0,1,486.1833190917969,25.6833251953125)"><path transform="matrix(0.0119,0,0,-0.0119,0,0)" d="M51 726L32 700C87 636 187 526 187 266C187 -10 83 -131 32 -194L51 -215C104 -165 273 -23 273 265C273 542 108 675 51 726Z" stroke="rgb(0,0,0)" stroke-opacity="1" stroke-width="8" fill="rgb(0,0,0)" fill-opacity="1"></path></g></g></g></g><g><g><g><g transform="matrix(1,0,0,1,452.3666687011719,37.383322143554686)"><path transform="matrix(0.0119,0,0,-0.0119,0,0)" d="M534 628L519 537L554 537C563 588 578 648 597 692L78 692L78 659L125 659C172 657 174 646 161 569L81 120C67 40 59 29 15 27L-39 27L-39 -3C65 1 153 1 259 -3L259 30L212 30C165 32 163 43 176 120L268 642C355 656 445 654 534 628Z" stroke="rgb(0,0,0)" stroke-opacity="1" stroke-width="8" fill="rgb(0,0,0)" fill-opacity="1"></path></g></g></g></g></g></g></g><g transform="matrix(0.7849926664121726,-0.6195050554104523,0.6195050554104523,0.7849926664121726,77.15519628233506,275.6588458520721)"><g><g><g transform="matrix(1,0,0,1,411.8166809082031,32.59999084472656)"><path transform="matrix(0.017,0,0,-0.017,0,0)" d="M9 1C24 -7 40 -11 52 -11C85 -11 124 18 155 65L231 182L242 113C255 28 278 -11 314 -11C336 -11 368 6 400 35L449 79L440 98C404 68 379 53 363 53C348 53 335 63 325 83C316 102 305 139 300 168L282 269L317 318C364 383 391 406 422 406C438 406 450 398 455 383L469 387L484 472C472 479 463 482 454 482C414 482 374 446 312 354L275 299L269 347C257 446 230 482 171 482C145 482 123 474 114 461L56 378L73 368C103 402 123 416 142 416C175 416 197 375 214 277L225 215L185 153C142 86 108 54 80 54C65 54 54 58 52 63L41 91L21 88C21 53 13 27 9 1Z" stroke="rgb(0,0,0)" stroke-opacity="1" stroke-width="8" fill="rgb(0,0,0)" fill-opacity="1"></path></g></g><g><g><g><g><g transform="matrix(1,0,0,1,421.3000183105469,25.883322143554686)"><path transform="matrix(0.0119,0,0,-0.0119,0,0)" d="M24 388L31 368L63 389C100 412 103 414 110 414C121 414 128 404 128 389C128 338 87 145 46 2L53 -9C78 -2 101 4 123 8C142 134 163 199 209 268C263 352 338 414 383 414C394 414 400 405 400 390C400 372 397 351 389 319L337 107C328 70 324 47 324 31C324 6 335 -9 354 -9C380 -9 416 12 514 85L504 103L478 86C449 67 427 56 417 56C410 56 404 65 404 76C404 81 405 92 406 96L472 372C479 401 483 429 483 446C483 469 472 482 452 482C410 482 341 444 282 389C244 354 216 320 164 247L202 408C206 426 208 438 208 449C208 470 200 482 185 482C164 482 125 460 52 408ZM1159 241L1159 300L919 300L919 538L860 538L860 300L620 300L620 241L860 241L860 0L919 0L919 241ZM1641 -3L1641 27L1589 30C1534 33 1524 44 1524 96L1524 700L1283 598L1290 548L1440 614L1440 96C1440 44 1429 33 1375 30L1319 27L1319 -3C1473 0 1473 0 1484 0C1515 0 1625 -3 1641 -3ZM1926 123C1899 114 1881 108 1828 93C1821 17 1796 -48 1738 -144L1752 -155L1793 -136C1874 -31 1912 32 1940 109Z" stroke="rgb(0,0,0)" stroke-opacity="1" stroke-width="8" fill="rgb(0,0,0)" fill-opacity="1"></path></g></g><g><g transform="matrix(1,0,0,1,444.7500305175781,25.6833251953125)"><path transform="matrix(0.0119,0,0,-0.0119,0,0)" d="M146 266C146 526 243 632 301 700L282 726C225 675 60 542 60 266C60 159 85 58 133 -32C168 -99 200 -138 282 -215L301 -194C255 -137 146 -15 146 266Z" stroke="rgb(0,0,0)" stroke-opacity="1" stroke-width="8" fill="rgb(0,0,0)" fill-opacity="1"></path></g></g><g><g transform="matrix(1,0,0,1,448.6999816894531,25.883322143554686)"><path transform="matrix(0.0119,0,0,-0.0119,0,0)" d="M16 23L16 -3C203 -3 203 0 239 0C275 0 275 -3 468 -3L468 82C353 77 307 81 122 77L304 270C401 373 431 428 431 503C431 618 353 689 226 689C154 689 105 669 56 619L39 483L68 483L81 529C97 587 133 612 200 612C286 612 341 558 341 473C341 398 299 324 186 204Z" stroke="rgb(0,0,0)" stroke-opacity="1" stroke-width="8" fill="rgb(0,0,0)" fill-opacity="1"></path></g></g><g><g transform="matrix(1,0,0,1,454.6333312988281,25.6833251953125)"><path transform="matrix(0.0119,0,0,-0.0119,0,0)" d="M51 726L32 700C87 636 187 526 187 266C187 -10 83 -131 32 -194L51 -215C104 -165 273 -23 273 265C273 542 108 675 51 726Z" stroke="rgb(0,0,0)" stroke-opacity="1" stroke-width="8" fill="rgb(0,0,0)" fill-opacity="1"></path></g></g></g></g><g><g><g><g transform="matrix(1,0,0,1,420.8166809082031,37.383322143554686)"><path transform="matrix(0.0119,0,0,-0.0119,0,0)" d="M534 628L519 537L554 537C563 588 578 648 597 692L78 692L78 659L125 659C172 657 174 646 161 569L81 120C67 40 59 29 15 27L-39 27L-39 -3C65 1 153 1 259 -3L259 30L212 30C165 32 163 43 176 120L268 642C355 656 445 654 534 628Z" stroke="rgb(0,0,0)" stroke-opacity="1" stroke-width="8" fill="rgb(0,0,0)" fill-opacity="1"></path></g></g></g></g></g></g></g><g transform="matrix(0.7849926664121726,-0.6195050554104523,0.6195050554104523,0.7849926664121726,69.51885335927449,253.65609382151675)"><g><g><g transform="matrix(1,0,0,1,376.3000183105469,32.59999084472656)"><path transform="matrix(0.017,0,0,-0.017,0,0)" d="M9 1C24 -7 40 -11 52 -11C85 -11 124 18 155 65L231 182L242 113C255 28 278 -11 314 -11C336 -11 368 6 400 35L449 79L440 98C404 68 379 53 363 53C348 53 335 63 325 83C316 102 305 139 300 168L282 269L317 318C364 383 391 406 422 406C438 406 450 398 455 383L469 387L484 472C472 479 463 482 454 482C414 482 374 446 312 354L275 299L269 347C257 446 230 482 171 482C145 482 123 474 114 461L56 378L73 368C103 402 123 416 142 416C175 416 197 375 214 277L225 215L185 153C142 86 108 54 80 54C65 54 54 58 52 63L41 91L21 88C21 53 13 27 9 1Z" stroke="rgb(0,0,0)" stroke-opacity="1" stroke-width="8" fill="rgb(0,0,0)" fill-opacity="1"></path></g></g><g><g><g><g><g transform="matrix(1,0,0,1,385.7833557128906,25.883322143554686)"><path transform="matrix(0.0119,0,0,-0.0119,0,0)" d="M24 388L31 368L63 389C100 412 103 414 110 414C121 414 128 404 128 389C128 338 87 145 46 2L53 -9C78 -2 101 4 123 8C142 134 163 199 209 268C263 352 338 414 383 414C394 414 400 405 400 390C400 372 397 351 389 319L337 107C328 70 324 47 324 31C324 6 335 -9 354 -9C380 -9 416 12 514 85L504 103L478 86C449 67 427 56 417 56C410 56 404 65 404 76C404 81 405 92 406 96L472 372C479 401 483 429 483 446C483 469 472 482 452 482C410 482 341 444 282 389C244 354 216 320 164 247L202 408C206 426 208 438 208 449C208 470 200 482 185 482C164 482 125 460 52 408ZM1159 241L1159 300L919 300L919 538L860 538L860 300L620 300L620 241L860 241L860 0L919 0L919 241ZM1641 -3L1641 27L1589 30C1534 33 1524 44 1524 96L1524 700L1283 598L1290 548L1440 614L1440 96C1440 44 1429 33 1375 30L1319 27L1319 -3C1473 0 1473 0 1484 0C1515 0 1625 -3 1641 -3ZM1926 123C1899 114 1881 108 1828 93C1821 17 1796 -48 1738 -144L1752 -155L1793 -136C1874 -31 1912 32 1940 109Z" stroke="rgb(0,0,0)" stroke-opacity="1" stroke-width="8" fill="rgb(0,0,0)" fill-opacity="1"></path></g></g><g><g transform="matrix(1,0,0,1,409.2333068847656,25.6833251953125)"><path transform="matrix(0.0119,0,0,-0.0119,0,0)" d="M146 266C146 526 243 632 301 700L282 726C225 675 60 542 60 266C60 159 85 58 133 -32C168 -99 200 -138 282 -215L301 -194C255 -137 146 -15 146 266Z" stroke="rgb(0,0,0)" stroke-opacity="1" stroke-width="8" fill="rgb(0,0,0)" fill-opacity="1"></path></g></g><g><g transform="matrix(1,0,0,1,413.1833190917969,25.883322143554686)"><path transform="matrix(0.0119,0,0,-0.0119,0,0)" d="M462 224C462 345 355 366 308 374C388 436 418 482 418 541C418 630 344 689 233 689C165 689 120 670 72 622L43 498L74 498L92 554C103 588 166 622 218 622C283 622 336 569 336 506C336 431 277 368 206 368C198 368 187 369 174 370L159 371L147 318L154 312C192 329 211 334 238 334C321 334 369 281 369 190C369 88 308 21 215 21C169 21 128 36 98 64C74 86 61 109 42 163L15 153C36 92 44 56 50 6C103 -12 147 -20 184 -20C307 -20 462 87 462 224Z" stroke="rgb(0,0,0)" stroke-opacity="1" stroke-width="8" fill="rgb(0,0,0)" fill-opacity="1"></path></g></g><g><g transform="matrix(1,0,0,1,419.1166687011719,25.6833251953125)"><path transform="matrix(0.0119,0,0,-0.0119,0,0)" d="M51 726L32 700C87 636 187 526 187 266C187 -10 83 -131 32 -194L51 -215C104 -165 273 -23 273 265C273 542 108 675 51 726Z" stroke="rgb(0,0,0)" stroke-opacity="1" stroke-width="8" fill="rgb(0,0,0)" fill-opacity="1"></path></g></g></g></g><g><g><g><g transform="matrix(1,0,0,1,385.3000183105469,37.383322143554686)"><path transform="matrix(0.0119,0,0,-0.0119,0,0)" d="M534 628L519 537L554 537C563 588 578 648 597 692L78 692L78 659L125 659C172 657 174 646 161 569L81 120C67 40 59 29 15 27L-39 27L-39 -3C65 1 153 1 259 -3L259 30L212 30C165 32 163 43 176 120L268 642C355 656 445 654 534 628Z" stroke="rgb(0,0,0)" stroke-opacity="1" stroke-width="8" fill="rgb(0,0,0)" fill-opacity="1"></path></g></g></g></g></g></g></g><g transform="matrix(0.7849926664121726,-0.6195050554104523,0.6195050554104523,0.7849926664121726,63.049973581182485,232.15050867736957)"><g><g><g transform="matrix(1,0,0,1,342.0833435058594,31.166656494140625)"><path transform="matrix(0.017,0,0,-0.017,0,0)" d="M9 1C24 -7 40 -11 52 -11C85 -11 124 18 155 65L231 182L242 113C255 28 278 -11 314 -11C336 -11 368 6 400 35L449 79L440 98C404 68 379 53 363 53C348 53 335 63 325 83C316 102 305 139 300 168L282 269L317 318C364 383 391 406 422 406C438 406 450 398 455 383L469 387L484 472C472 479 463 482 454 482C414 482 374 446 312 354L275 299L269 347C257 446 230 482 171 482C145 482 123 474 114 461L56 378L73 368C103 402 123 416 142 416C175 416 197 375 214 277L225 215L185 153C142 86 108 54 80 54C65 54 54 58 52 63L41 91L21 88C21 53 13 27 9 1Z" stroke="rgb(0,0,0)" stroke-opacity="1" stroke-width="8" fill="rgb(0,0,0)" fill-opacity="1"></path></g></g><g><g><g><g><g transform="matrix(1,0,0,1,351.5666809082031,24.44998779296875)"><path transform="matrix(0.0119,0,0,-0.0119,0,0)" d="M24 388L31 368L63 389C100 412 103 414 110 414C121 414 128 404 128 389C128 338 87 145 46 2L53 -9C78 -2 101 4 123 8C142 134 163 199 209 268C263 352 338 414 383 414C394 414 400 405 400 390C400 372 397 351 389 319L337 107C328 70 324 47 324 31C324 6 335 -9 354 -9C380 -9 416 12 514 85L504 103L478 86C449 67 427 56 417 56C410 56 404 65 404 76C404 81 405 92 406 96L472 372C479 401 483 429 483 446C483 469 472 482 452 482C410 482 341 444 282 389C244 354 216 320 164 247L202 408C206 426 208 438 208 449C208 470 200 482 185 482C164 482 125 460 52 408ZM1159 241L1159 300L919 300L919 538L860 538L860 300L620 300L620 241L860 241L860 0L919 0L919 241ZM1641 -3L1641 27L1589 30C1534 33 1524 44 1524 96L1524 700L1283 598L1290 548L1440 614L1440 96C1440 44 1429 33 1375 30L1319 27L1319 -3C1473 0 1473 0 1484 0C1515 0 1625 -3 1641 -3ZM1926 123C1899 114 1881 108 1828 93C1821 17 1796 -48 1738 -144L1752 -155L1793 -136C1874 -31 1912 32 1940 109Z" stroke="rgb(0,0,0)" stroke-opacity="1" stroke-width="8" fill="rgb(0,0,0)" fill-opacity="1"></path></g></g><g><g transform="matrix(1,0,0,1,375.0166931152344,24.24999084472656)"><path transform="matrix(0.0119,0,0,-0.0119,0,0)" d="M146 266C146 526 243 632 301 700L282 726C225 675 60 542 60 266C60 159 85 58 133 -32C168 -99 200 -138 282 -215L301 -194C255 -137 146 -15 146 266Z" stroke="rgb(0,0,0)" stroke-opacity="1" stroke-width="8" fill="rgb(0,0,0)" fill-opacity="1"></path></g></g><g><g transform="matrix(1,0,0,1,378.9667053222656,24.44998779296875)"><path transform="matrix(0.0119,0,0,-0.0119,0,0)" d="M280 181L280 106C280 46 269 32 220 30L158 27L158 -3C291 0 291 0 315 0C339 0 339 0 472 -3L472 27L424 30C375 33 364 46 364 106L364 181C423 181 444 180 472 177L472 248L364 245L365 697L285 667L2 204L2 181ZM280 245L65 245L280 597Z" stroke="rgb(0,0,0)" stroke-opacity="1" stroke-width="8" fill="rgb(0,0,0)" fill-opacity="1"></path></g></g><g><g transform="matrix(1,0,0,1,384.8999938964844,24.24999084472656)"><path transform="matrix(0.0119,0,0,-0.0119,0,0)" d="M51 726L32 700C87 636 187 526 187 266C187 -10 83 -131 32 -194L51 -215C104 -165 273 -23 273 265C273 542 108 675 51 726Z" stroke="rgb(0,0,0)" stroke-opacity="1" stroke-width="8" fill="rgb(0,0,0)" fill-opacity="1"></path></g></g></g></g><g><g><g><g transform="matrix(1,0,0,1,351.0833435058594,35.94998779296875)"><path transform="matrix(0.0119,0,0,-0.0119,0,0)" d="M534 628L519 537L554 537C563 588 578 648 597 692L78 692L78 659L125 659C172 657 174 646 161 569L81 120C67 40 59 29 15 27L-39 27L-39 -3C65 1 153 1 259 -3L259 30L212 30C165 32 163 43 176 120L268 642C355 656 445 654 534 628Z" stroke="rgb(0,0,0)" stroke-opacity="1" stroke-width="8" fill="rgb(0,0,0)" fill-opacity="1"></path></g></g></g></g></g></g></g></svg>
</svg>
